ffmpeg started on 2016-12-01 at 09:42:06
Report written to "Output/x264/results/ffmpeg/old_town_cross_2160p50medium13000k.log"
Command line:
Tools/ffmpeg/ffmpeg -benchmark -y -i Input/y4m/old_town_cross_2160p50.y4m -c:v libx264 -preset medium -b:v 13000k -an Output/x264/encoded/old_town_cross_2160p50medium13000k.mkv
ffmpeg version N-82227-gdb23fde Copyright (c) 2000-2016 the FFmpeg developers
  built with gcc 5.4.0 (Ubuntu 5.4.0-6ubuntu1~16.04.2) 20160609
  configuration: --prefix=/home/jaroslav/ffmpeg_build --pkg-config-flags=--static --extra-cflags=-I/home/jaroslav/ffmpeg_build/include --extra-ldflags=-L/home/jaroslav/ffmpeg_build/lib --bindir=/home/jaroslav/bin --enable-gpl --enable-libass --enable-libfdk-aac --enable-libfreetype --enable-libmp3lame --enable-libopus --enable-libtheora --enable-libvorbis --enable-libvpx --enable-libx264 --enable-libx265 --enable-nvenc --enable-libmfx --enable-libxvid --enable-libgsm --enable-libopencore-amrnb --enable-version3 --enable-nonfree
  libavutil      55. 35.100 / 55. 35.100
  libavcodec     57. 66.101 / 57. 66.101
  libavformat    57. 57.100 / 57. 57.100
  libavdevice    57.  2.100 / 57.  2.100
  libavfilter     6. 66.100 /  6. 66.100
  libswscale      4.  3.100 /  4.  3.100
  libswresample   2.  4.100 /  2.  4.100
  libpostproc    54.  2.100 / 54.  2.100
Input #0, yuv4mpegpipe, from 'Input/y4m/old_town_cross_2160p50.y4m':
  Duration: 00:00:10.00, start: 0.000000, bitrate: 4976642 kb/s
    Stream #0:0: Video: rawvideo (I420 / 0x30323449), yuv420p(progressive), 3840x2160, SAR 1:1 DAR 16:9, 50 fps, 50 tbr, 50 tbn, 50 tbc
[libx264 @ 0x42cb120] using SAR=1/1
[libx264 @ 0x42cb120] using cpu capabilities: MMX2 SSE2Fast SSSE3 SSE4.2 AVX FMA3 AVX2 LZCNT BMI2
[libx264 @ 0x42cb120] profile High, level 5.2
[libx264 @ 0x42cb120] 264 - core 148 - H.264/MPEG-4 AVC codec - Copyleft 2003-2016 - http://www.videolan.org/x264.html - options: cabac=1 ref=3 deblock=1:0:0 analyse=0x3:0x113 me=hex subme=7 psy=1 psy_rd=1.00:0.00 mixed_ref=1 me_range=16 chroma_me=1 trellis=1 8x8dct=1 cqm=0 deadzone=21,11 fast_pskip=1 chroma_qp_offset=-2 threads=6 lookahead_threads=1 sliced_threads=0 nr=0 decimate=1 interlaced=0 bluray_compat=0 constrained_intra=0 bframes=3 b_pyramid=2 b_adapt=1 b_bias=0 direct=1 weightb=1 open_gop=0 weightp=2 keyint=250 keyint_min=25 scenecut=40 intra_refresh=0 rc_lookahead=40 rc=abr mbtree=1 bitrate=13000 ratetol=1.0 qcomp=0.60 qpmin=0 qpmax=69 qpstep=4 ip_ratio=1.40 aq=1:1.00
Output #0, matroska, to 'Output/x264/encoded/old_town_cross_2160p50medium13000k.mkv':
  Metadata:
    encoder         : Lavf57.57.100
    Stream #0:0: Video: h264 (libx264) (H264 / 0x34363248), yuv420p, 3840x2160 [SAR 1:1 DAR 16:9], q=-1--1, 13000 kb/s, 50 fps, 1k tbn, 50 tbc
    Metadata:
      encoder         : Lavc57.66.101 libx264
    Side data:
      cpb: bitrate max/min/avg: 0/0/13000000 buffer size: 0 vbv_delay: -1
Stream mapping:
  Stream #0:0 -> #0:0 (rawvideo (native) -> h264 (libx264))
Press [q] to stop, [?] for help
frame=   47 fps= 18 q=0.0 size=       0kB time=00:00:00.00 bitrate=N/A speed=   0x    frame=   52 fps= 16 q=32.0 size=       1kB time=-00:00:00.01 bitrate=N/A speed=N/A    frame=   57 fps= 15 q=34.0 size=       1kB time=00:00:00.08 bitrate=  72.5kbits/s speed=0.0215x    frame=   63 fps= 15 q=46.0 size=       1kB time=00:00:00.20 bitrate=  29.2kbits/s speed=0.0471x    frame=   70 fps= 15 q=44.0 size=       1kB time=00:00:00.34 bitrate=  17.2kbits/s speed=0.0715x    frame=   78 fps= 15 q=41.0 size=       1kB time=00:00:00.50 bitrate=  11.7kbits/s speed=0.0938x    frame=   86 fps= 15 q=39.0 size=       1kB time=00:00:00.66 bitrate=   8.9kbits/s speed=0.112x    frame=   94 fps= 14 q=38.0 size=       1kB time=00:00:00.82 bitrate=   7.2kbits/s speed=0.124x    frame=  103 fps= 14 q=36.0 size=       1kB time=00:00:01.00 bitrate=   5.9kbits/s speed=0.139x    frame=  107 fps= 14 q=36.0 size=       1kB time=00:00:01.08 bitrate=   5.4kbits/s speed=0.14x    frame=  114 fps= 14 q=36.0 size=       1kB time=00:00:01.22 bitrate=   4.8kbits/s speed=0.146x    frame=  122 fps= 13 q=35.0 size=       1kB time=00:00:01.38 bitrate=   4.3kbits/s speed=0.152x    frame=  129 fps= 13 q=35.0 size=       1kB time=00:00:01.52 bitrate=   3.9kbits/s speed=0.158x    frame=  136 fps= 13 q=34.0 size=       1kB time=00:00:01.66 bitrate=   3.5kbits/s speed=0.163x    frame=  141 fps= 13 q=34.0 size=       1kB time=00:00:01.76 bitrate=   3.3kbits/s speed=0.164x    frame=  145 fps= 13 q=34.0 size=       1kB time=00:00:01.84 bitrate=   3.2kbits/s speed=0.163x    frame=  151 fps= 13 q=34.0 size=       1kB time=00:00:01.96 bitrate=   3.0kbits/s speed=0.165x    frame=  158 fps= 13 q=34.0 size=       1kB time=00:00:02.10 bitrate=   2.8kbits/s speed=0.167x    frame=  165 fps= 13 q=34.0 size=       1kB time=00:00:02.24 bitrate=   2.6kbits/s speed=0.171x    frame=  170 fps= 12 q=33.0 size=       1kB time=00:00:02.34 bitrate=   2.5kbits/s speed=0.171x    frame=  174 fps= 12 q=33.0 size=       1kB time=00:00:02.42 bitrate=   2.4kbits/s speed=0.171x    frame=  180 fps= 12 q=33.0 size=       1kB time=00:00:02.54 bitrate=   2.3kbits/s speed=0.173x    frame=  186 fps= 12 q=33.0 size=       1kB time=00:00:02.66 bitrate=   2.2kbits/s speed=0.174x    frame=  190 fps= 12 q=33.0 size=       1kB time=00:00:02.74 bitrate=   2.1kbits/s speed=0.174x    frame=  197 fps= 12 q=33.0 size=       1kB time=00:00:02.88 bitrate=   2.0kbits/s speed=0.176x    frame=  203 fps= 12 q=33.0 size=       1kB time=00:00:03.00 bitrate=   2.0kbits/s speed=0.177x    frame=  208 fps= 12 q=33.0 size=       1kB time=00:00:03.10 bitrate=   1.9kbits/s speed=0.178x    frame=  213 fps= 12 q=33.0 size=       1kB time=00:00:03.20 bitrate=   1.8kbits/s speed=0.178x    frame=  218 fps= 12 q=33.0 size=       1kB time=00:00:03.30 bitrate=   1.8kbits/s speed=0.178x    frame=  225 fps= 12 q=33.0 size=    5134kB time=00:00:03.44 bitrate=12223.2kbits/s speed=0.178x    frame=  233 fps= 12 q=33.0 size=    5134kB time=00:00:03.60 bitrate=11680.1kbits/s speed=0.179x    frame=  239 fps= 12 q=33.0 size=    5134kB time=00:00:03.72 bitrate=11303.5kbits/s speed=0.18x    frame=  245 fps= 11 q=33.0 size=    5134kB time=00:00:03.84 bitrate=10950.3kbits/s speed=0.18x    frame=  251 fps= 11 q=33.0 size=    5134kB time=00:00:03.96 bitrate=10618.6kbits/s speed=0.181x    frame=  257 fps= 11 q=33.0 size=    5134kB time=00:00:04.08 bitrate=10306.3kbits/s speed=0.181x    frame=  261 fps= 11 q=33.0 size=    5134kB time=00:00:04.16 bitrate=10108.2kbits/s speed=0.181x    frame=  262 fps= 11 q=33.0 size=    5134kB time=00:00:04.18 bitrate=10059.8kbits/s speed=0.176x    frame=  263 fps= 11 q=33.0 size=    5134kB time=00:00:04.20 bitrate=10011.9kbits/s speed=0.172x    frame=  265 fps= 11 q=33.0 size=    5134kB time=00:00:04.24 bitrate=9917.5kbits/s speed=0.169x    frame=  270 fps= 10 q=33.0 size=    5134kB time=00:00:04.34 bitrate=9689.0kbits/s speed=0.169x    frame=  274 fps= 10 q=33.0 size=    5134kB time=00:00:04.42 bitrate=9513.7kbits/s speed=0.168x    frame=  278 fps= 10 q=33.0 size=    5134kB time=00:00:04.50 bitrate=9344.6kbits/s speed=0.168x    frame=  282 fps= 10 q=34.0 size=    5134kB time=00:00:04.58 bitrate=9181.4kbits/s speed=0.168x    frame=  286 fps= 10 q=34.0 size=    5134kB time=00:00:04.66 bitrate=9023.8kbits/s speed=0.168x    frame=  290 fps= 10 q=34.0 size=    5134kB time=00:00:04.74 bitrate=8871.6kbits/s speed=0.168x    frame=  294 fps= 10 q=34.0 size=    5134kB time=00:00:04.82 bitrate=8724.4kbits/s speed=0.168x    frame=  301 fps= 10 q=34.0 size=    7788kB time=00:00:04.96 bitrate=12859.7kbits/s speed=0.168x    frame=  307 fps= 10 q=34.0 size=    7788kB time=00:00:05.08 bitrate=12556.0kbits/s speed=0.169x    frame=  314 fps= 10 q=34.0 size=    7788kB time=00:00:05.22 bitrate=12219.3kbits/s speed=0.17x    frame=  319 fps= 10 q=34.0 size=    7788kB time=00:00:05.32 bitrate=11989.7kbits/s speed=0.17x    frame=  323 fps= 10 q=34.0 size=    7788kB time=00:00:05.40 bitrate=11812.1kbits/s speed=0.17x    frame=  330 fps= 10 q=34.0 size=    7788kB time=00:00:05.54 bitrate=11513.6kbits/s speed=0.171x    frame=  337 fps= 10 q=34.0 size=    7788kB time=00:00:05.68 bitrate=11229.9kbits/s speed=0.172x    frame=  342 fps= 10 q=34.0 size=    7788kB time=00:00:05.78 bitrate=11035.6kbits/s speed=0.172x    frame=  347 fps= 10 q=34.0 size=    7788kB time=00:00:05.88 bitrate=10848.0kbits/s speed=0.172x    frame=  354 fps= 10 q=34.0 size=    7788kB time=00:00:06.02 bitrate=10595.7kbits/s speed=0.173x    frame=  361 fps= 10 q=34.0 size=    7788kB time=00:00:06.16 bitrate=10355.0kbits/s speed=0.174x    frame=  367 fps= 10 q=34.0 size=    7788kB time=00:00:06.28 bitrate=10157.1kbits/s speed=0.174x    frame=  372 fps= 10 q=34.0 size=    7788kB time=00:00:06.38 bitrate=9998.0kbits/s speed=0.174x    frame=  379 fps= 10 q=34.0 size=    7788kB time=00:00:06.52 bitrate=9783.3kbits/s speed=0.176x    frame=  383 fps= 10 q=33.0 size=    7788kB time=00:00:06.60 bitrate=9664.7kbits/s speed=0.175x    frame=  390 fps= 10 q=33.0 size=    7788kB time=00:00:06.74 bitrate=9464.0kbits/s speed=0.176x    frame=  398 fps= 10 q=33.0 size=    7788kB time=00:00:06.90 bitrate=9244.6kbits/s speed=0.176x    frame=  403 fps= 10 q=33.0 size=    7788kB time=00:00:07.00 bitrate=9112.5kbits/s speed=0.176x    frame=  410 fps= 10 q=33.0 size=    7788kB time=00:00:07.14 bitrate=8933.9kbits/s speed=0.177x    frame=  417 fps= 10 q=33.0 size=    7788kB time=00:00:07.28 bitrate=8762.1kbits/s speed=0.178x    frame=  422 fps= 10 q=33.0 size=    7788kB time=00:00:07.38 bitrate=8643.4kbits/s speed=0.178x    frame=  429 fps= 10 q=33.0 size=    7788kB time=00:00:07.52 bitrate=8482.5kbits/s speed=0.179x    frame=  434 fps= 10 q=33.0 size=    7788kB time=00:00:07.62 bitrate=8371.2kbits/s speed=0.179x    frame=  439 fps= 10 q=33.0 size=    7788kB time=00:00:07.72 bitrate=8262.8kbits/s speed=0.179x    frame=  445 fps= 10 q=33.0 size=    7788kB time=00:00:07.84 bitrate=8136.3kbits/s speed=0.179x    frame=  450 fps= 10 q=33.0 size=    7788kB time=00:00:07.94 bitrate=8033.9kbits/s speed=0.179x    frame=  455 fps= 10 q=33.0 size=    7788kB time=00:00:08.04 bitrate=7934.0kbits/s speed=0.179x    frame=  462 fps= 10 q=33.0 size=    7788kB time=00:00:08.18 bitrate=7798.2kbits/s speed=0.179x    frame=  469 fps= 10 q=33.0 size=    7788kB time=00:00:08.32 bitrate=7667.0kbits/s speed=0.18x    frame=  474 fps= 10 q=33.0 size=   12966kB time=00:00:08.42 bitrate=12613.2kbits/s speed=0.18x    frame=  480 fps= 10 q=33.0 size=   12966kB time=00:00:08.54 bitrate=12436.0kbits/s speed=0.18x    frame=  486 fps= 10 q=33.0 size=   12966kB time=00:00:08.66 bitrate=12263.7kbits/s speed=0.18x    frame=  491 fps= 10 q=33.0 size=   12966kB time=00:00:08.76 bitrate=12123.7kbits/s speed=0.18x    frame=  498 fps= 10 q=33.0 size=   12966kB time=00:00:08.90 bitrate=11933.0kbits/s speed=0.18x    frame=  500 fps=9.0 q=-1.0 Lsize=   16038kB time=00:00:09.94 bitrate=13216.4kbits/s speed=0.18x    
video:16033kB audio:0kB subtitle:0kB other streams:0kB global headers:0kB muxing overhead: 0.029187%
bench: utime=199.704s
bench: maxrss=1927420kB
[libx264 @ 0x42cb120] frame I:3     Avg QP:28.59  size:568483
[libx264 @ 0x42cb120] frame P:183   Avg QP:31.96  size: 48031
[libx264 @ 0x42cb120] frame B:314   Avg QP:33.85  size: 18861
[libx264 @ 0x42cb120] consecutive B-frames: 16.0%  0.8%  0.0% 83.2%
[libx264 @ 0x42cb120] mb I  I16..4:  3.6% 83.1% 13.3%
[libx264 @ 0x42cb120] mb P  I16..4:  0.1%  0.7%  0.0%  P16..4: 40.4%  2.8%  3.3%  0.0%  0.0%    skip:52.7%
[libx264 @ 0x42cb120] mb B  I16..4:  0.0%  0.1%  0.0%  B16..8: 45.8%  0.2%  0.0%  direct: 0.0%  skip:53.9%  L0:49.4% L1:50.6% BI: 0.0%
[libx264 @ 0x42cb120] final ratefactor: 25.70
[libx264 @ 0x42cb120] 8x8 transform intra:84.6% inter:90.5%
[libx264 @ 0x42cb120] coded y,uvDC,uvAC intra: 77.0% 76.3% 58.2% inter: 7.5% 7.1% 0.1%
[libx264 @ 0x42cb120] i16 v,h,dc,p: 28% 31% 20% 21%
[libx264 @ 0x42cb120] i8 v,h,dc,ddl,ddr,vr,hd,vl,hu: 11% 15% 38%  6%  6%  6%  8%  5%  7%
[libx264 @ 0x42cb120] i4 v,h,dc,ddl,ddr,vr,hd,vl,hu: 17% 23% 15%  8%  7%  7%  9%  6%  7%
[libx264 @ 0x42cb120] i8c dc,h,v,p: 66% 16% 14%  4%
[libx264 @ 0x42cb120] Weighted P-Frames: Y:0.5% UV:0.0%
[libx264 @ 0x42cb120] ref P L0: 52.3% 27.9% 15.3%  4.5%  0.0%
[libx264 @ 0x42cb120] ref B L0: 85.5% 11.8%  2.7%
[libx264 @ 0x42cb120] ref B L1: 93.9%  6.1%
[libx264 @ 0x42cb120] kb/s:13134.02
